<svg width="43" height="41" viewBox="0 0 43 41" fill="none" xmlns="http://www.w3.org/2000/svg">
<path d="M22.2175 7.10468C24.0338 7.10468 25.5063 5.70073 25.5063 3.96887C25.5063 2.23702 24.0338 0.833069 22.2175 0.833069C20.4011 0.833069 18.9287 2.23702 18.9287 3.96887C18.9287 5.70073 20.4011 7.10468 22.2175 7.10468Z" fill="#FEC63E"/>
<path d="M34.2362 23.4553C33.6654 23.4553 33.1075 23.5082 32.5668 23.608L30.8231 18.6678L32.0222 19.2394C32.5958 19.513 33.2941 19.2912 33.5812 18.7439C33.8682 18.1966 33.6355 17.5311 33.0615 17.2574L29.7942 15.6997C30.2376 16.3277 30.419 17.1218 30.2288 17.9182C30.0322 18.7404 29.4797 19.397 28.7617 19.7747L29.092 20.7104L25.4259 20.8135C25.4579 21.189 25.4171 21.5701 25.3016 21.9391L24.9561 23.0436L27.0425 22.9849L24.1215 25.7111L22.9034 29.6045C22.6536 29.5266 22.3747 29.5284 22.1114 29.6289L21.3055 29.9363C21.309 29.9261 21.3132 29.9164 21.3164 29.9061L23.9309 21.5493C24.1981 20.6955 23.7307 19.7896 22.8583 19.4703L21.2492 18.8813C20.7909 18.7817 20.5263 18.7242 20.2487 18.6639C19.4086 18.4814 18.8185 17.8069 18.7327 17.0331L18.1295 11.5097L20.1259 16.5294C20.3028 16.9743 20.7016 17.3051 21.188 17.4108L26.9922 18.672C27.7953 18.8463 28.5934 18.3669 28.7761 17.6025C28.9589 16.8375 28.4566 16.076 27.6544 15.9016L22.629 14.8097L20.9159 10.5022L22.713 12.8964L23.222 11.6252C23.6597 10.5322 23.0853 9.30794 21.939 8.89064L18.2377 7.54318C17.0914 7.12587 15.8074 7.67356 15.3698 8.76655C12.4457 16.0685 12.565 15.6983 12.4765 16.1835C12.3157 17.065 12.5049 17.9531 12.9699 18.6918C11.029 18.6918 11.5949 18.6918 11.3877 18.6918C10.6176 18.6918 9.9933 19.2871 9.9933 20.0213C9.9933 20.7556 10.6176 21.3509 11.3877 21.3509H13.6906L13.9268 21.8941L12.2979 24.1659C11.2163 23.7096 10.0206 23.4555 8.7638 23.4555C3.93141 23.4553 0 27.204 0 31.8115C0 36.419 3.93141 40.1676 8.7638 40.1676C13.0208 40.1676 16.5781 37.2582 17.3649 33.4155C17.5278 33.4951 17.7093 33.5386 17.8953 33.5386C18.039 33.5386 18.185 33.513 18.3266 33.4591L22.9746 31.6863C23.5704 31.4591 23.8603 30.8143 23.622 30.2461C23.5259 30.0169 23.3577 29.8362 23.153 29.7158L30.0114 23.3149L30.3648 24.3162C27.4689 25.6817 25.4724 28.5282 25.4724 31.8114C25.4724 36.4189 29.4038 40.1675 34.2363 40.1675C39.0686 40.1675 43 36.4189 43 31.8114C43 27.204 39.0686 23.4553 34.2362 23.4553ZM12.9641 27.163C14.0547 28.0602 14.8268 29.2988 15.0965 30.7035H10.4254L12.9641 27.163ZM8.7638 37.9517C5.21288 37.9517 2.32402 35.1973 2.32402 31.8115C2.32402 28.4257 5.21288 25.6712 8.7638 25.6712C9.53305 25.6712 10.271 25.8009 10.9554 26.0379L7.26397 31.1863C7.02069 31.5255 6.99438 31.9652 7.19555 32.3286C7.39671 32.692 7.79226 32.9195 8.22323 32.9195H15.0964C14.5476 35.7779 11.9179 37.9517 8.7638 37.9517ZM17.4634 31.4016C17.3858 31.4312 17.3139 31.4681 17.2472 31.5107C16.4988 30.7418 16.1788 29.6282 16.5189 28.5414L16.6408 28.1515C16.0771 27.0529 15.268 26.0891 14.2819 25.3249L14.9897 24.3378L16.644 28.1416L17.4861 25.4499L16.5426 23.2803L18.1793 23.2343L18.2813 22.9082C17.4633 22.6088 14.8532 21.6535 14.0258 21.3506C18.3218 21.3506 17.8654 21.3524 17.9708 21.347L20.0308 22.0876L17.8897 28.9312C17.6443 29.7158 18.0196 30.5356 18.7437 30.9132L17.4634 31.4016ZM34.2362 37.9517C30.6853 37.9517 27.7963 35.1973 27.7963 31.8116C27.7963 29.505 29.1379 27.4923 31.1153 26.443L33.1349 32.165C33.2982 32.6278 33.7508 32.9199 34.236 32.9199C34.3589 32.9199 34.4839 32.9012 34.6068 32.8618C35.2151 32.6666 35.5421 32.0382 35.3374 31.4583L33.3174 25.7349C33.6176 25.6938 33.9241 25.6713 34.2361 25.6713C37.7869 25.6713 40.6758 28.4258 40.6758 31.8116C40.676 35.1973 37.787 37.9517 34.2362 37.9517Z" fill="#FEC63E"/>
</svg>
