<svg width="51" height="41" viewBox="0 0 51 41" fill="none" xmlns="http://www.w3.org/2000/svg">
<path d="M42.3703 23.0446C41.697 23.0446 41.0423 23.1246 40.413 23.2711L35.9137 11.1365C35.9764 7.76453 35.099 5.11853 33.3039 3.26887C30.8379 0.727795 27.5614 0.698547 27.4227 0.698547C26.8228 0.698547 26.3375 1.18441 26.3375 1.78361C26.3375 2.38292 26.8228 2.86868 27.4227 2.86868C27.4469 2.86868 29.9128 2.89043 31.7472 4.78037C32.585 5.64363 33.1595 6.77002 33.4711 8.14245C30.9233 6.30976 27.8166 6.63252 26.1787 7.24047C25.6181 7.44978 25.3319 8.07449 25.5407 8.63612C25.7505 9.19817 26.3768 9.48429 26.9374 9.27394C27.1219 9.20493 31.4823 7.64077 33.8394 11.7819L35.256 15.603L32.9775 18.9161H20.4094L18.9607 14.5391H22.1571C22.7568 14.5391 23.2423 14.0532 23.2423 13.454C23.2423 12.8548 22.7569 12.3688 22.1571 12.3688H12.762C12.1622 12.3688 11.6769 12.8547 11.6769 13.454C11.6769 14.0532 12.1622 14.5391 12.762 14.5391H16.6745L18.1234 18.9161H11.3144C1.71792 18.9161 0.0975606 24.89 0.0329251 25.1443C-0.112167 25.7213 0.244109 26.2688 0.8098 26.4542C1.39162 26.6448 1.9697 26.2426 2.13436 25.6869C2.18713 25.5089 3.36743 21.5017 10.2292 21.1163V23.1153C5.98095 23.6507 2.68423 27.2822 2.68423 31.671C2.68423 36.43 6.55528 40.3016 11.3143 40.3016C16.0712 40.3016 19.9411 36.43 19.9411 31.671C19.9411 27.2824 16.6455 23.651 12.3993 23.1154V21.0863H18.8416L23.119 34.0086C23.2484 34.3996 23.5924 34.6606 23.9965 34.742C24.4005 34.8234 24.8389 34.5793 25.0435 34.2826L36.1787 18.0923L38.3788 24.0263C35.6242 25.4689 33.7392 28.3534 33.7392 31.671C33.7392 36.43 37.6113 40.3016 42.3703 40.3016C47.1294 40.3016 51.0005 36.43 51.0005 31.671C51.0005 26.9146 47.1295 23.0446 42.3703 23.0446ZM17.7709 31.6709C17.7709 35.233 14.8748 38.1312 11.3144 38.1312C7.75276 38.1312 4.85457 35.2329 4.85457 31.6709C4.85457 28.4806 7.18269 25.8252 10.2293 25.3077V31.159C10.2293 31.7583 10.7146 32.2442 11.3145 32.2442C11.9143 32.2442 12.3995 31.7583 12.3995 31.159V25.3078C15.4448 25.8255 17.7709 28.4808 17.7709 31.6709ZM24.4926 31.2529L21.1276 21.0864H31.4847L24.4926 31.2529ZM42.3703 38.1313C38.8077 38.1313 35.9095 35.2331 35.9095 31.671C35.9095 29.286 37.2113 27.2005 39.1413 26.0827L41.353 32.0482C41.7208 32.8798 42.4367 32.8003 42.7476 32.6883C43.3112 32.4854 43.5964 31.856 43.3876 31.2937L41.1755 25.3274C41.563 25.2546 41.962 25.2149 42.3703 25.2149C45.932 25.2149 48.8302 28.1109 48.8302 31.6709C48.8302 35.233 45.932 38.1313 42.3703 38.1313Z" fill="#FEC63E"/>
</svg>
