<svg width="55" height="55" viewBox="0 0 55 55" fill="none" xmlns="http://www.w3.org/2000/svg">
<path d="M44.2358 21.9335C43.5939 21.9335 42.965 21.9902 42.3537 22.0985L41.0329 17.5462L39.9969 13.8297H44.2358C45.4522 13.8297 45.9968 14.5461 45.9968 15.256C45.9968 15.6594 45.8202 16.0389 45.4993 16.3243C45.061 16.7144 44.3794 16.9206 43.5281 16.9206V19.2123C45.3244 19.2123 46.42 18.5727 47.0228 18.0362C47.8272 17.3203 48.2885 16.3069 48.2885 15.2558C48.2885 14.2702 47.9014 13.3488 47.1986 12.6613C46.4473 11.9264 45.4227 11.5378 44.2358 11.5378H36.979L38.4205 16.709H21.1782L20.597 15.1507H24.4159V12.859H15.1869V15.1507H18.1511L19.1076 17.7153L15.6223 23.0936C14.162 22.3519 12.5112 21.9332 10.7643 21.9332C4.82889 21.9335 0 26.7623 0 32.6976C0 38.6329 4.82889 43.4618 10.7642 43.4618C16.3124 43.4618 20.8932 39.242 21.4672 33.8434H22.8979C23.3702 35.1687 24.6371 36.1202 26.1226 36.1202C28.0098 36.1202 29.5451 34.5849 29.5451 32.6976C29.5451 32.0483 29.3632 31.4405 29.0479 30.9227L39.384 20.087L40.1533 22.7385C36.2366 24.35 33.4717 28.2066 33.4717 32.6977C33.4717 38.6331 38.3005 43.4619 44.2358 43.4619C50.1711 43.4619 55 38.633 55 32.6976C55 26.7622 50.1711 21.9335 44.2358 21.9335ZM37.2528 19.0009L27.2646 29.4717C26.9073 29.3449 26.5229 29.2751 26.1225 29.2751C26.0369 29.2751 25.9522 29.2794 25.8681 29.2855L22.0327 19.0009H37.2528V19.0009ZM20.1049 20.3902L23.7692 30.216C23.3821 30.5832 23.0804 31.0392 22.8978 31.5518H21.4672C21.1588 28.6512 19.6938 26.0914 17.5434 24.3431L20.1049 20.3902ZM19.157 31.5518H12.8722L16.2876 26.2812C17.8177 27.6002 18.872 29.4548 19.157 31.5518ZM10.7642 41.1702C6.0924 41.1702 2.29167 37.3694 2.29167 32.6976C2.29167 28.0258 6.0924 24.2252 10.7642 24.2252C12.0519 24.2252 13.2726 24.5152 14.3666 25.0314L8.6562 33.8434H19.1568C18.5956 37.975 15.0471 41.1702 10.7642 41.1702ZM26.1226 33.8285C25.499 33.8285 24.9917 33.3212 24.9917 32.6976C24.9917 32.0742 25.499 31.5668 26.1226 31.5668C26.746 31.5668 27.2534 32.0742 27.2534 32.6976C27.2534 33.3213 26.746 33.8285 26.1226 33.8285ZM44.2358 41.1702C39.5641 41.1702 35.7634 37.3694 35.7634 32.6977C35.7634 29.25 37.8346 26.2788 40.7971 24.9574L43.1355 33.0169L45.3363 32.3785L42.9973 24.3167C43.4018 24.2572 43.8151 24.2253 44.2359 24.2253C48.9077 24.2253 52.7084 28.026 52.7084 32.6977C52.7084 37.3694 48.9076 41.1702 44.2358 41.1702Z" fill="#FEC63E"/>
</svg>
