<svg width="48" height="49" viewBox="0 0 48 49" fill="none" xmlns="http://www.w3.org/2000/svg">
<g clip-path="url(#clip0_92:391)">
<path d="M31.6005 13.095C31.6005 13.095 31.6006 13.095 31.6007 13.095C32.3976 13.095 33.2293 12.7126 33.882 12.0459C34.4598 11.4561 34.9341 10.351 35.2302 9.5277C35.3851 9.09675 35.5176 8.66532 35.6032 8.31313C35.7021 7.90563 35.8253 7.3985 35.4704 7.03568C35.3628 6.92582 35.1703 6.7948 34.8642 6.7948C34.1701 6.7948 31.5191 7.68005 30.5623 8.65671C30.0319 9.1982 29.6797 9.86974 29.5705 10.5477C29.4479 11.308 29.6475 12.0192 30.1179 12.4994C30.494 12.8835 31.0206 13.095 31.6005 13.095ZM31.0524 10.7966C31.1101 10.4377 31.3187 10.0529 31.6244 9.74093C32.0329 9.32385 33.1405 8.85184 33.9649 8.57239C33.6912 9.41401 33.2287 10.5447 32.82 10.9619C32.4576 11.332 31.9904 11.5619 31.6005 11.5619C31.474 11.5619 31.2982 11.5364 31.1798 11.4155C31.0102 11.2422 31.0272 10.9534 31.0524 10.7966Z" fill="#FEC63E"/>
<path d="M28.2239 20.9001C29.021 20.9001 29.8527 20.5178 30.5057 19.851C31.0834 19.2613 31.5576 18.1561 31.8536 17.3329C32.0087 16.9018 32.141 16.4705 32.2265 16.1183C32.3254 15.7107 32.4487 15.2036 32.0937 14.8408C31.9861 14.7309 31.7935 14.6 31.4874 14.6C30.7933 14.6 28.1423 15.4853 27.1856 16.462C26.0058 17.6666 25.8105 19.3545 26.7411 20.3046C27.1174 20.6886 27.6439 20.9001 28.2239 20.9001ZM28.2478 17.546C28.6564 17.1289 29.7639 16.6569 30.5884 16.3775C30.3146 17.2191 29.8522 18.3498 29.4436 18.7669C29.0811 19.137 28.6137 19.3669 28.2239 19.3669C28.0973 19.3669 27.9217 19.3415 27.8032 19.2205C27.5211 18.9325 27.6512 18.1552 28.2478 17.546Z" fill="#FEC63E"/>
<path d="M13.8048 15.6687C13.4989 15.6687 13.3065 15.7995 13.1985 15.9096C12.8436 16.2721 12.9668 16.7794 13.0657 17.1869C13.1512 17.5391 13.2837 17.9706 13.4387 18.4015C13.7347 19.2247 14.2089 20.3297 14.7868 20.9197C15.4399 21.5864 16.2716 21.9687 17.0685 21.9687C17.6484 21.9687 18.1749 21.7572 18.5512 21.3734C19.4819 20.4231 19.2866 18.7352 18.1067 17.5307C17.1501 16.554 14.4989 15.6687 13.8048 15.6687ZM17.4891 20.2893C17.3706 20.4101 17.1949 20.4356 17.0684 20.4356C16.6786 20.4356 16.2112 20.2056 15.8486 19.8356C15.44 19.4184 14.9776 18.2876 14.7037 17.4461C15.5282 17.7256 16.6358 18.1976 17.0445 18.6148C17.6411 19.2238 17.7713 20.0012 17.4891 20.2893Z" fill="#FEC63E"/>
<path d="M38.2337 21.2228C39.7071 19.0644 40.4804 16.6175 40.4804 14.0763C40.4804 6.31459 33.1838 0 24.2152 0C15.2467 0 7.95009 6.31459 7.95009 14.0762C7.95009 20.7554 13.3537 26.3628 20.5763 27.797V34.3413L18.0024 32.1997C18.1444 31.7371 18.2221 31.2492 18.2221 30.7443C18.2221 27.8387 15.7009 25.4747 12.602 25.4747C9.50315 25.4747 6.98193 27.8386 6.98193 30.7443C6.98193 33.65 9.50315 36.0139 12.602 36.0139C13.3763 36.0139 14.1145 35.8664 14.7864 35.5996L20.5762 40.4168V44.4893H17.7673C16.8172 44.4893 16.0441 45.2785 16.0441 46.2484V47.241C16.0441 48.2109 16.8172 49.0001 17.7673 49.0001H30.6631C31.6132 49.0001 32.3864 48.2109 32.3864 47.241V46.2484C32.3864 45.2785 31.6132 44.4893 30.6631 44.4893H27.8544V36.2099L34.2545 31.0619C34.9483 31.3497 35.7145 31.511 36.5208 31.511C39.6196 31.511 42.1408 29.1472 42.1408 26.2414C42.1408 23.8956 40.4974 21.9038 38.2337 21.2228ZM9.45187 14.0762C9.45187 7.15993 16.0747 1.53316 24.2152 1.53316C32.3558 1.53316 38.9786 7.15993 38.9786 14.0762C38.9786 16.5466 38.1366 18.9226 36.5434 20.9723C36.5359 20.9722 36.5285 20.9718 36.5209 20.9718C33.7976 20.9718 31.5212 22.7975 31.0092 25.2119C28.9228 26.1327 26.5816 26.6193 24.2153 26.6193C16.0747 26.6193 9.45187 20.9925 9.45187 14.0762ZM31.0938 27.6087L27.8545 30.2142V27.795C28.9174 27.5847 29.9541 27.2834 30.9455 26.8943C30.9776 27.1379 31.0271 27.3765 31.0938 27.6087ZM12.602 34.4806C10.3312 34.4806 8.48381 32.8044 8.48381 30.7441C8.48381 28.6839 10.3312 27.0077 12.602 27.0077C14.8729 27.0077 16.7202 28.6839 16.7202 30.7441C16.7202 32.8044 14.8729 34.4806 12.602 34.4806ZM30.6631 46.0222C30.7832 46.0222 30.8845 46.1257 30.8845 46.2482V47.2407C30.8845 47.3633 30.7831 47.4666 30.6631 47.4666H17.7674C17.6475 47.4666 17.5461 47.3631 17.5461 47.2407V46.2482C17.5461 46.1257 17.6475 46.0222 17.7674 46.0222H30.6631ZM26.3526 35.4659V44.489H22.0781V39.6883L16.1945 34.7929C16.629 34.4532 17.0074 34.0531 17.3167 33.6068L22.0781 37.5685V28.0307C22.7777 28.1105 23.4909 28.1523 24.2153 28.1523C24.9314 28.1523 25.6456 28.11 26.3527 28.0291V33.3741L31.7549 29.0289C32.0567 29.4807 32.4293 29.8865 32.8582 30.233L26.3526 35.4659ZM36.5208 29.9777C34.2499 29.9777 32.4025 28.3015 32.4025 26.2412C32.4025 24.181 34.2499 22.5048 36.5208 22.5048C38.7916 22.5048 40.6389 24.1809 40.6389 26.2412C40.6389 28.3014 38.7916 29.9777 36.5208 29.9777Z" fill="#FEC63E"/>
<path d="M21.8122 5.13255C21.5998 4.7728 21.3355 4.3252 20.8333 4.3252C20.3311 4.3252 20.0669 4.7728 19.8545 5.13245C19.6709 5.4433 19.4658 5.84381 19.2769 6.2605C18.9161 7.05628 18.4858 8.18002 18.4858 9.01417C18.4858 10.7177 19.517 12.0523 20.8333 12.0523C22.1496 12.0523 23.1807 10.7178 23.1807 9.01417C23.1807 8.18002 22.7505 7.05628 22.3898 6.2605C22.2008 5.84391 21.9957 5.44329 21.8122 5.13255ZM20.8334 10.5191C20.4342 10.5191 19.9878 9.8755 19.9878 9.01417C19.9878 8.42416 20.4441 7.29094 20.8334 6.49833C21.2228 7.29104 21.679 8.42426 21.679 9.01417C21.679 9.8755 21.2325 10.5191 20.8334 10.5191Z" fill="#FEC63E"/>
</g>
<defs>
<clipPath id="clip0_92:391">
<rect width="48" height="49" fill="white"/>
</clipPath>
</defs>
</svg>
